<?xml version="1.0" encoding="utf-8"?><svg viewBox="0 0 34 34" xmlns="http://www.w3.org/2000/svg" xmlns:xlink="http://www.w3.org/1999/xlink"><style>:root>svg{display:none}:root>svg:target{display:block}</style><svg fill="none" viewBox="-1 -1 18 18" id="image-angle" xmlns="http://www.w3.org/2000/svg"><path d="M6 3l5 5-5 5" stroke="currentColor" stroke-width="1.5" stroke-linecap="round" stroke-linejoin="round"/></svg><svg fill="none" viewBox="-1 -1 26 26" id="image-apple-logo" xmlns="http://www.w3.org/2000/svg"><path d="M12.21 4.885c.857 0 1.933-.58 2.573-1.353.58-.7 1.002-1.68 1.002-2.658 0-.132-.012-.265-.036-.374-.954.036-2.102.64-2.79 1.45-.544.615-1.039 1.582-1.039 2.572 0 .145.024.29.036.338.06.013.157.025.254.025zM9.19 19.5c1.172 0 1.691-.785 3.153-.785 1.486 0 1.812.76 3.116.76 1.28 0 2.138-1.183 2.947-2.343.906-1.328 1.28-2.633 1.305-2.693-.085-.024-2.537-1.027-2.537-3.841 0-2.44 1.933-3.54 2.042-3.624-1.28-1.836-3.225-1.884-3.757-1.884-1.437 0-2.609.87-3.346.87-.797 0-1.848-.822-3.092-.822-2.367 0-4.771 1.957-4.771 5.653 0 2.295.894 4.723 1.993 6.293.942 1.329 1.764 2.416 2.947 2.416z" fill="currentColor"/></svg><svg fill="none" viewBox="-1 -1 26 26" id="image-color-tick" xmlns="http://www.w3.org/2000/svg"><path d="M4 11l6 6L20 7" stroke="#802DFF" stroke-width="2" stroke-linecap="round" stroke-linejoin="round"/></svg><svg fill="none" viewBox="-1 -1 18 18" id="image-cross" xmlns="http://www.w3.org/2000/svg"><path d="M3 3l10 10m0-10L3 13" stroke="currentColor" stroke-width="1.8" stroke-linecap="round"/></svg><svg fill="none" viewBox="-1 -1 26 26" id="image-expand" xmlns="http://www.w3.org/2000/svg"><path d="M5 5v5m0-5h5M5 5l5 5M19 19v-5m0 5h-5m5 0l-5-5" stroke="currentColor" stroke-width="2" stroke-linecap="round" stroke-linejoin="round"/></svg><svg fill="none" viewBox="-1 -1 26 26" id="image-google-logo" xmlns="http://www.w3.org/2000/svg"><path fill="#fff" d="M4.16 4h15.682v16H4.16z"/><path d="M19.843 12.192c0-.54-.053-1.098-.14-1.621h-7.547v3.085h4.323a3.636 3.636 0 01-1.604 2.422l2.58 2.005c1.516-1.412 2.388-3.469 2.388-5.891z" fill="#4280EF"/><path d="M12.156 20c2.16 0 3.974-.715 5.298-1.935l-2.58-1.987c-.714.488-1.638.767-2.718.767-2.092 0-3.852-1.411-4.497-3.294l-2.65 2.04A7.992 7.992 0 0012.157 20z" fill="#34A353"/><path d="M7.66 13.534a4.86 4.86 0 010-3.068L5.01 8.41a8.01 8.01 0 000 7.18l2.65-2.056z" fill="#F6B704"/><path d="M12.156 7.172a4.365 4.365 0 013.067 1.203l2.283-2.3A7.699 7.699 0 0012.156 4 7.992 7.992 0 005.01 8.41l2.649 2.056c.645-1.9 2.405-3.294 4.497-3.294z" fill="#E54335"/></svg><svg fill="none" viewBox="-1 -1 26 26" id="image-meditation" xmlns="http://www.w3.org/2000/svg"><path d="M12.005 18.995a9.97 9.97 0 007.171-2.928 9.97 9.97 0 002.929-7.172 9.97 9.97 0 00-7.106 2.864m-3.005 7.236a9.97 9.97 0 01-7.17-2.928 9.97 9.97 0 01-2.929-7.172A9.97 9.97 0 019 11.76m6 0a9.97 9.97 0 00-3-7.049 9.97 9.97 0 00-3 7.049m6 0v.092a9.97 9.97 0 01-3 7.142 9.97 9.97 0 01-3-7.234" stroke="currentColor" stroke-width="2" stroke-linejoin="round"/></svg><svg fill="none" viewBox="-1 -1 26 26" id="image-moon" xmlns="http://www.w3.org/2000/svg"><path fill-rule="evenodd" clip-rule="evenodd" d="M5.909 8.09l-1.66-.622a.5.5 0 010-.936l1.66-.623.623-1.66a.5.5 0 01.936 0l.623 1.66 1.66.623a.5.5 0 010 .936l-1.66.623-.623 1.66a.5.5 0 01-.936 0l-.623-1.66z" fill="currentColor"/><path d="M12 20a8 8 0 003.293-15.293A8 8 0 014.707 15.293 8.001 8.001 0 0012 20z" stroke="currentColor" stroke-width="2" stroke-linejoin="round"/></svg><svg fill="none" viewBox="-1 -1 34 34" id="image-options" xmlns="http://www.w3.org/2000/svg"><circle cx="16" cy="16" r="9" stroke="currentColor" stroke-width="2"/><circle cx="11.5" cy="16" r="1.5" fill="currentColor"/><circle cx="16" cy="16" r="1.5" fill="currentColor"/><circle cx="20.5" cy="16" r="1.5" fill="currentColor"/></svg><svg fill="none" viewBox="-1 -1 34 34" id="image-pause" xmlns="http://www.w3.org/2000/svg"><rect x="8" y="5" width="5" height="22" rx="1.5" fill="currentColor"/><rect x="19" y="5" width="5" height="22" rx="1.5" fill="currentColor"/></svg><svg fill="none" viewBox="-1 -1 34 34" id="image-pause-white" xmlns="http://www.w3.org/2000/svg"><rect x="8" y="5" width="5" height="22" rx="1.5" fill="#fff"/><rect x="19" y="5" width="5" height="22" rx="1.5" fill="#fff"/></svg><svg fill="none" viewBox="-1 -1 26 26" id="image-play" xmlns="http://www.w3.org/2000/svg"><path d="M19.5 10.268c1.333.77 1.333 2.694 0 3.464L9 19.794c-1.333.77-3-.192-3-1.732V5.938c0-1.54 1.667-2.502 3-1.732l10.5 6.062z" fill="currentColor"/></svg><svg fill="none" viewBox="-1 -1 26 26" id="image-play-next" xmlns="http://www.w3.org/2000/svg"><path fill-rule="evenodd" clip-rule="evenodd" d="M12 11.998a.99.99 0 00-.5-.864l-9-5.196a1 1 0 00-1.5.866v10.392a1 1 0 001.5.866l9-5.196a.99.99 0 00.5-.864v5.194a1 1 0 001.5.866l9-5.196a1 1 0 000-1.732l-9-5.196a1 1 0 00-1.5.866v5.194z" fill="currentColor"/></svg><svg fill="none" viewBox="-1 -1 26 26" id="image-play-prev" xmlns="http://www.w3.org/2000/svg"><path fill-rule="evenodd" clip-rule="evenodd" d="M1.5 11.134a1 1 0 000 1.732l9 5.196a1 1 0 001.5-.866v-5.194a.99.99 0 00.5.864l9 5.196a1 1 0 001.5-.866V6.804a1 1 0 00-1.5-.866l-9 5.196a.99.99 0 00-.5.864V6.804a1 1 0 00-1.5-.866l-9 5.196z" fill="currentColor"/></svg><svg fill="none" viewBox="-1 -1 26 26" id="image-play-white" xmlns="http://www.w3.org/2000/svg"><path d="M19.5 10.268c1.333.77 1.333 2.694 0 3.464L9 19.794c-1.333.77-3-.192-3-1.732V5.938c0-1.54 1.667-2.502 3-1.732l10.5 6.062z" fill="#fff"/></svg><svg fill="none" viewBox="-1 -1 26 26" id="image-profile" xmlns="http://www.w3.org/2000/svg"><circle cx="12" cy="12" r="9" stroke="currentColor" stroke-width="2"/><circle cx="12" cy="9" r="3" fill="currentColor"/><path d="M12 13a7.003 7.003 0 00-6.71 4.998A8.978 8.978 0 0012 21a8.978 8.978 0 006.71-3.002A7.003 7.003 0 0012 13z" fill="currentColor"/></svg><svg fill="none" viewBox="-1 -1 26 26" id="image-radio-icon" xmlns="http://www.w3.org/2000/svg"><circle cx="12" cy="12" r="9" fill="#802DFF" stroke="#802DFF" stroke-width="2"/><path d="M7.5 12l3 3 6-6" stroke="#fff" stroke-width="2" stroke-linecap="round" stroke-linejoin="round"/></svg><svg fill="none" viewBox="-1 -1 20 20" id="image-star" xmlns="http://www.w3.org/2000/svg"><path d="M8.327 2.863a.75.75 0 011.346 0l1.357 2.75a.75.75 0 00.564.41l3.035.44a.75.75 0 01.416 1.28l-2.196 2.14a.75.75 0 00-.216.664l.519 3.023a.75.75 0 01-1.089.79L9.35 12.934a.75.75 0 00-.698 0L5.937 14.36a.75.75 0 01-1.089-.791l.519-3.023a.75.75 0 00-.216-.663l-2.196-2.14a.75.75 0 01.416-1.28l3.035-.441a.75.75 0 00.564-.41l1.357-2.75z" fill="url(#rpaint0_linear_1054_4385)"/><defs><linearGradient id="rpaint0_linear_1054_4385" x1="3" y1="3" x2="15" y2="15" gradientUnits="userSpaceOnUse"><stop stop-color="#FFEB45"/><stop offset="1" stop-color="#FFC545"/></linearGradient></defs></svg><svg fill="none" viewBox="-1 -1 22 16" id="image-tick" xmlns="http://www.w3.org/2000/svg"><path d="M2 7.5l5 5 11-11" stroke="currentColor" stroke-width="3" stroke-linecap="round" stroke-linejoin="round"/></svg><svg fill="none" viewBox="-1 -1 26 26" id="image-volume" xmlns="http://www.w3.org/2000/svg"><path d="M3 10v4a1 1 0 001 1h2.045a2 2 0 011.394.566l2.864 2.784c.634.616 1.697.167 1.697-.717V6.367c0-.884-1.063-1.333-1.697-.717L7.439 8.434A2 2 0 016.045 9H4a1 1 0 00-1 1z" stroke="currentColor" stroke-width="2"/><path d="M18.709 6a8.967 8.967 0 012.292 6 8.967 8.967 0 01-2.292 6M16 15c.628-.835 1-1.874 1-3a4.978 4.978 0 00-1-3" stroke="currentColor" stroke-width="2" stroke-linecap="round"/></svg></svg>