<svg width="132" height="44" viewBox="0 0 132 44" fill="none" xmlns="http://www.w3.org/2000/svg"><g clip-path="url(#a)"><path d="M121.148 0H10.488c-.403 0-.802 0-1.204.002-.337.003-.67.009-1.01.014-.74.009-1.476.074-2.205.195A7.332 7.332 0 0 0 3.978.9 7.082 7.082 0 0 0 .214 6.073a14.292 14.292 0 0 0-.197 2.202c-.01.337-.012.676-.017 1.013v25.426c.005.341.006.672.017 1.014.008.738.074 1.474.197 2.202.12.729.353 1.435.687 2.095A6.828 6.828 0 0 0 2.197 41.8a6.9 6.9 0 0 0 1.78 1.297 7.37 7.37 0 0 0 2.092.694c.729.12 1.466.184 2.204.194.34.008.674.012 1.01.012.403.002.802.002 1.205.002h110.66c.396 0 .797 0 1.193-.002.335 0 .679-.004 1.014-.012a14.62 14.62 0 0 0 2.2-.194 7.492 7.492 0 0 0 2.099-.694 6.916 6.916 0 0 0 1.779-1.297c.523-.52.962-1.12 1.299-1.776a7.23 7.23 0 0 0 .681-2.094c.123-.728.191-1.464.205-2.202.004-.342.004-.673.004-1.014.008-.4.008-.798.008-1.204V10.49c0-.403 0-.803-.008-1.201 0-.337 0-.676-.004-1.013a14.915 14.915 0 0 0-.205-2.202 7.258 7.258 0 0 0-.681-2.094A7.111 7.111 0 0 0 127.654.9a7.45 7.45 0 0 0-2.099-.69 14.36 14.36 0 0 0-2.2-.194c-.335-.005-.679-.012-1.014-.014C121.945 0 121.544 0 121.148 0Z" fill="#A6A6A6"/><path d="M9.29 43.038c-.335 0-.662-.005-.995-.012a13.955 13.955 0 0 1-2.056-.18 6.474 6.474 0 0 1-1.822-.602 5.948 5.948 0 0 1-1.537-1.119 5.852 5.852 0 0 1-1.123-1.536 6.293 6.293 0 0 1-.597-1.823 13.654 13.654 0 0 1-.183-2.062c-.007-.232-.016-1.005-.016-1.005V9.29s.01-.76.016-.984c.008-.69.07-1.379.182-2.06a6.33 6.33 0 0 1 .598-1.828 6.122 6.122 0 0 1 2.66-2.662 6.405 6.405 0 0 1 1.818-.599 13.844 13.844 0 0 1 2.063-.18L9.29.963h113.046l1.004.013c.685.009 1.369.068 2.045.18a6.54 6.54 0 0 1 1.838.602 6.155 6.155 0 0 1 2.656 2.662c.287.571.485 1.183.589 1.814.114.686.178 1.38.191 2.076.003.311.003.646.003.979.009.412.009.805.009 1.2v23.022c0 .4 0 .79-.009 1.183 0 .358 0 .685-.004 1.023a14.073 14.073 0 0 1-.188 2.038 6.323 6.323 0 0 1-.594 1.837 6.034 6.034 0 0 1-1.117 1.525c-.45.455-.969.835-1.54 1.125a6.44 6.44 0 0 1-1.834.604c-.68.111-1.368.171-2.057.18-.322.007-.659.011-.987.011l-1.192.003-111.86-.002Z" fill="#000"/><path d="M27.246 22.33a5.444 5.444 0 0 1 2.592-4.567 5.571 5.571 0 0 0-4.39-2.373c-1.847-.194-3.638 1.105-4.58 1.105-.959 0-2.408-1.086-3.969-1.054a5.848 5.848 0 0 0-4.92 3.001c-2.127 3.683-.54 9.096 1.497 12.074 1.02 1.458 2.211 3.086 3.77 3.028 1.527-.063 2.096-.973 3.938-.973 1.825 0 2.36.973 3.95.937 1.637-.027 2.669-1.465 3.653-2.937a12.059 12.059 0 0 0 1.67-3.401 5.26 5.26 0 0 1-3.211-4.84Zm-3.005-8.898a5.36 5.36 0 0 0 1.226-3.84 5.453 5.453 0 0 0-3.528 1.826 5.1 5.1 0 0 0-1.258 3.697 4.51 4.51 0 0 0 3.56-1.683Zm22.291 16.422h-5.207l-1.25 3.692h-2.206l4.932-13.66h2.291l4.932 13.66H47.78l-1.25-3.692Zm-4.668-1.704h4.127l-2.034-5.992H43.9l-2.036 5.992Zm18.81.417c0 3.094-1.656 5.083-4.156 5.083a3.376 3.376 0 0 1-3.133-1.743h-.048v4.933h-2.044V23.586h1.979v1.657h.037a3.533 3.533 0 0 1 3.171-1.76c2.528 0 4.194 1.997 4.194 5.084Zm-2.101 0c0-2.017-1.042-3.342-2.632-3.342-1.562 0-2.612 1.353-2.612 3.342 0 2.006 1.05 3.35 2.612 3.35 1.59 0 2.632-1.316 2.632-3.35Zm13.064 0c0 3.094-1.656 5.083-4.156 5.083a3.377 3.377 0 0 1-3.134-1.743H64.3v4.933h-2.044V23.586h1.979v1.657h.037a3.532 3.532 0 0 1 3.171-1.76c2.528 0 4.194 1.997 4.194 5.084Zm-2.101 0c0-2.017-1.042-3.342-2.632-3.342-1.562 0-2.612 1.353-2.612 3.342 0 2.006 1.05 3.35 2.612 3.35 1.59 0 2.632-1.316 2.632-3.35Zm9.344 1.173c.151 1.354 1.467 2.244 3.265 2.244 1.723 0 2.963-.89 2.963-2.111 0-1.06-.748-1.695-2.518-2.13l-1.77-.427c-2.508-.606-3.673-1.779-3.673-3.682 0-2.357 2.054-3.976 4.97-3.976 2.887 0 4.865 1.619 4.932 3.976h-2.063c-.124-1.363-1.25-2.186-2.898-2.186-1.646 0-2.773.832-2.773 2.044 0 .966.72 1.534 2.48 1.969l1.505.37c2.803.662 3.967 1.788 3.967 3.786 0 2.556-2.035 4.156-5.273 4.156-3.03 0-5.075-1.563-5.207-4.033h2.093Zm12.8-8.51v2.357h1.893v1.618H91.68v5.49c0 .854.379 1.251 1.211 1.251.225-.004.45-.02.673-.047v1.609c-.374.07-.755.102-1.136.095-2.016 0-2.802-.758-2.802-2.69v-5.708h-1.448v-1.618h1.448V21.23h2.054Zm2.99 7.337c0-3.134 1.845-5.103 4.723-5.103 2.888 0 4.725 1.97 4.725 5.103 0 3.142-1.828 5.102-4.725 5.102-2.896 0-4.723-1.96-4.723-5.102Zm7.365 0c0-2.15-.985-3.419-2.642-3.419-1.656 0-2.64 1.279-2.64 3.419 0 2.158.984 3.417 2.64 3.417 1.657 0 2.642-1.26 2.642-3.417Zm3.77-4.98h1.949v1.695h.048a2.377 2.377 0 0 1 2.395-1.8c.236 0 .471.025.701.077v1.912a2.861 2.861 0 0 0-.919-.124 2.06 2.06 0 0 0-2.13 2.291v5.908h-2.044v-9.96Zm14.517 7.033c-.275 1.808-2.036 3.05-4.289 3.05-2.897 0-4.695-1.942-4.695-5.056 0-3.124 1.808-5.15 4.609-5.15 2.756 0 4.488 1.893 4.488 4.913v.7h-7.034v.123a2.605 2.605 0 0 0 .703 2.015 2.6 2.6 0 0 0 1.977.806 2.253 2.253 0 0 0 2.299-1.4h1.942Zm-6.911-2.972h4.979a2.387 2.387 0 0 0-.669-1.797 2.386 2.386 0 0 0-1.774-.73 2.52 2.52 0 0 0-2.536 2.527ZM41.61 9.604a2.903 2.903 0 0 1 3.087 3.262c0 2.096-1.133 3.302-3.088 3.302h-2.37V9.604h2.37Zm-1.352 5.635h1.237a2.063 2.063 0 0 0 2.165-2.36 2.07 2.07 0 0 0-2.165-2.347h-1.237v4.707Zm5.591-1.55a2.346 2.346 0 1 1 4.672 0 2.347 2.347 0 1 1-4.672 0Zm3.666 0c0-1.074-.482-1.702-1.329-1.702-.85 0-1.327.628-1.327 1.702 0 1.082.478 1.705 1.327 1.705.847 0 1.33-.627 1.33-1.705Zm7.215 2.479h-1.013l-1.024-3.648h-.077l-1.02 3.648h-1.004l-1.365-4.954h.991l.887 3.78h.073l1.019-3.78h.938l1.018 3.78h.077l.883-3.78h.978l-1.36 4.954Zm2.508-4.954h.941v.787h.073a1.484 1.484 0 0 1 1.478-.882 1.61 1.61 0 0 1 1.715 1.842v3.207h-.978v-2.961c0-.796-.346-1.192-1.069-1.192a1.137 1.137 0 0 0-1.182 1.255v2.898h-.978v-4.954Zm5.766-1.934h.977v6.888h-.977V9.28Zm2.336 4.409a2.348 2.348 0 0 1 4.072-1.802 2.346 2.346 0 0 1 .6 1.802 2.347 2.347 0 1 1-4.673 0Zm3.665 0c0-1.074-.482-1.702-1.328-1.702-.85 0-1.328.628-1.328 1.702 0 1.082.478 1.705 1.328 1.705.846 0 1.328-.627 1.328-1.705Zm2.036 1.078c0-.892.664-1.406 1.842-1.479l1.342-.077v-.428c0-.523-.346-.818-1.014-.818-.546 0-.924.2-1.032.55h-.947c.1-.85.9-1.396 2.024-1.396 1.242 0 1.942.618 1.942 1.664v3.385h-.94v-.696h-.078a1.666 1.666 0 0 1-1.488.777 1.496 1.496 0 0 1-1.651-1.482Zm3.184-.423v-.414l-1.21.077c-.682.046-.991.277-.991.714 0 .446.387.705.918.705a1.169 1.169 0 0 0 1.283-1.082Zm2.257-.655c0-1.565.805-2.557 2.056-2.557a1.632 1.632 0 0 1 1.52.87h.072V9.28h.978v6.887h-.937v-.783h-.077a1.72 1.72 0 0 1-1.555.864c-1.26 0-2.057-.991-2.057-2.56Zm1.01 0c0 1.05.495 1.683 1.324 1.683.824 0 1.333-.642 1.333-1.679 0-1.032-.515-1.683-1.333-1.683-.823 0-1.324.637-1.324 1.679Zm7.662 0a2.348 2.348 0 1 1 4.671 0 2.348 2.348 0 0 1-3.286 2.373 2.347 2.347 0 0 1-1.385-2.373Zm3.666 0c0-1.074-.482-1.702-1.329-1.702-.85 0-1.328.628-1.328 1.702 0 1.082.478 1.705 1.328 1.705.847 0 1.329-.627 1.329-1.705Zm2.317-2.475h.94v.787h.074a1.483 1.483 0 0 1 1.478-.882 1.61 1.61 0 0 1 1.714 1.842v3.207h-.977v-2.961c0-.796-.346-1.192-1.069-1.192a1.137 1.137 0 0 0-1.183 1.255v2.898h-.977v-4.954Zm9.73-1.233v1.256h1.073v.823h-1.073v2.547c0 .52.213.746.7.746.124 0 .249-.008.373-.022v.814a3.215 3.215 0 0 1-.532.05c-1.087 0-1.52-.382-1.52-1.337V12.06h-.786v-.823h.786V9.98h.979Zm2.408-.701h.969v2.73h.078a1.52 1.52 0 0 1 1.51-.887 1.631 1.631 0 0 1 1.706 1.847v3.198h-.979V13.21c0-.791-.368-1.192-1.059-1.192a1.158 1.158 0 0 0-1.247 1.256v2.893h-.978V9.28Zm9.962 5.55a2.014 2.014 0 0 1-2.147 1.433 2.25 2.25 0 0 1-2.288-2.557 2.294 2.294 0 0 1 .552-1.814 2.278 2.278 0 0 1 1.732-.773c1.378 0 2.21.941 2.21 2.497v.34h-3.498v.056a1.32 1.32 0 0 0 .788 1.313c.168.072.349.108.531.106a1.189 1.189 0 0 0 1.179-.6h.941Zm-3.439-1.596h2.502a1.201 1.201 0 0 0-.325-.912 1.198 1.198 0 0 0-.894-.371 1.27 1.27 0 0 0-1.19.79 1.282 1.282 0 0 0-.093.493Z" fill="#fff"/></g><defs><clipPath id="a"><path fill="#fff" d="M0 0h131.63v44H0z"/></clipPath></defs></svg>