<svg width="150" height="44" viewBox="0 0 150 44" fill="none" xmlns="http://www.w3.org/2000/svg"><g clip-path="url(#a)"><path d="M143.628 44H6.133c-3.025 0-5.5-2.475-5.5-5.5v-33c0-3.024 2.475-5.5 5.5-5.5h137.495c3.025 0 5.5 2.476 5.5 5.5v33c0 3.025-2.475 5.5-5.5 5.5Z" fill="#100F0D"/><path d="M143.628 0H6.133c-3.025 0-5.5 2.476-5.5 5.5v33c0 3.025 2.475 5.5 5.5 5.5h137.495c3.025 0 5.5-2.475 5.5-5.5v-33c0-3.024-2.475-5.5-5.5-5.5Zm0 .88a4.625 4.625 0 0 1 4.62 4.62v33a4.625 4.625 0 0 1-4.62 4.62H6.133a4.625 4.625 0 0 1-4.62-4.62v-33A4.625 4.625 0 0 1 6.133.88h137.495Z" fill="#A2A2A1"/><path d="M118.259 33h2.053V19.248h-2.053V33Zm18.488-8.798-2.353 5.962h-.07l-2.442-5.962h-2.211l3.663 8.333-2.089 4.635h2.141l5.644-12.967h-2.283Zm-11.641 7.236c-.671 0-1.609-.336-1.609-1.168 0-1.061 1.168-1.468 2.176-1.468.902 0 1.327.194 1.875.46a2.488 2.488 0 0 1-2.442 2.176Zm.249-7.537c-1.486 0-3.025.655-3.662 2.106l1.822.76c.389-.76 1.114-1.008 1.875-1.008 1.061 0 2.141.637 2.158 1.77v.14c-.372-.211-1.168-.53-2.14-.53-1.965 0-3.964 1.08-3.964 3.096 0 1.84 1.611 3.025 3.415 3.025 1.379 0 2.141-.619 2.618-1.344h.071v1.062h1.982v-5.273c0-2.441-1.823-3.803-4.175-3.803Zm-12.685 1.975h-2.92v-4.713h2.92c1.534 0 2.405 1.27 2.405 2.357 0 1.065-.871 2.356-2.405 2.356Zm-.053-6.628h-4.918v13.753h2.051v-5.21h2.867c2.275 0 4.511-1.647 4.511-4.271 0-2.624-2.237-4.271-4.511-4.271ZM85.798 31.44c-1.418 0-2.605-1.187-2.605-2.817 0-1.649 1.187-2.853 2.605-2.853 1.4 0 2.499 1.204 2.499 2.853 0 1.63-1.099 2.817-2.499 2.817Zm2.357-6.468h-.07c-.461-.55-1.348-1.045-2.464-1.045-2.34 0-4.483 2.056-4.483 4.696 0 2.622 2.144 4.66 4.483 4.66 1.116 0 2.003-.496 2.463-1.063h.071v.673c0 1.79-.957 2.747-2.499 2.747-1.257 0-2.037-.904-2.356-1.665l-1.79.744c.514 1.24 1.878 2.764 4.146 2.764 2.411 0 4.449-1.418 4.449-4.873v-8.4h-1.95v.762ZM91.523 33h2.055V19.248h-2.055V33Zm5.085-4.537c-.053-1.808 1.4-2.729 2.446-2.729.816 0 1.506.408 1.737.992l-4.183 1.737Zm6.38-1.56c-.39-1.044-1.577-2.976-4.005-2.976-2.41 0-4.413 1.896-4.413 4.678 0 2.623 1.985 4.678 4.643 4.678 2.144 0 3.385-1.31 3.899-2.073l-1.595-1.063c-.532.78-1.258 1.294-2.304 1.294-1.045 0-1.79-.48-2.267-1.418l6.254-2.587-.212-.532Zm-49.838-1.54v1.984h4.75c-.143 1.116-.515 1.931-1.082 2.498-.691.691-1.772 1.454-3.668 1.454-2.924 0-5.21-2.357-5.21-5.281 0-2.924 2.286-5.281 5.21-5.281 1.577 0 2.729.62 3.58 1.418l1.4-1.4c-1.188-1.135-2.765-2.003-4.98-2.003-4.006 0-7.373 3.26-7.373 7.266 0 4.005 3.367 7.265 7.373 7.265 2.162 0 3.792-.709 5.068-2.038 1.311-1.311 1.719-3.154 1.719-4.643 0-.46-.036-.885-.107-1.24h-6.68Zm12.187 6.077c-1.418 0-2.64-1.17-2.64-2.835 0-1.683 1.222-2.835 2.64-2.835 1.417 0 2.64 1.152 2.64 2.835 0 1.666-1.223 2.835-2.64 2.835Zm0-7.513c-2.588 0-4.697 1.967-4.697 4.678 0 2.694 2.109 4.678 4.697 4.678 2.587 0 4.696-1.984 4.696-4.678 0-2.711-2.109-4.678-4.696-4.678ZM75.58 31.44c-1.417 0-2.64-1.17-2.64-2.835 0-1.683 1.223-2.835 2.64-2.835 1.418 0 2.64 1.152 2.64 2.835 0 1.666-1.222 2.835-2.64 2.835Zm0-7.513c-2.587 0-4.696 1.967-4.696 4.678 0 2.694 2.109 4.678 4.696 4.678 2.588 0 4.697-1.984 4.697-4.678 0-2.711-2.109-4.678-4.697-4.678Z" fill="#fff"/><path d="m23.42 21.367-11.711 12.43.002.007a3.162 3.162 0 0 0 4.66 1.907l.037-.021 13.182-7.607-6.17-6.716Z" fill="#EB3131"/><path d="m35.266 19.25-.01-.007-5.692-3.3-6.412 5.706 6.434 6.433 5.661-3.266a3.165 3.165 0 0 0 .02-5.565Z" fill="#F6B60B"/><path d="M11.707 10.205a3.1 3.1 0 0 0-.107.814v21.964c0 .282.036.555.107.814l12.115-12.112-12.115-11.48Z" fill="#5778C5"/><path d="m23.507 22.001 6.061-6.06-13.167-7.634a3.17 3.17 0 0 0-4.692 1.895v.004L23.507 22Z" fill="#3BAD49"/><path d="M52.765 10.76h-3.209v.794h2.405c-.065.648-.323 1.157-.758 1.526-.435.37-.99.555-1.647.555-.72 0-1.33-.25-1.83-.75-.49-.508-.739-1.137-.739-1.895s.25-1.387.739-1.896c.5-.498 1.11-.747 1.83-.747.37 0 .722.063 1.045.203.324.139.583.333.786.582l.61-.61a2.747 2.747 0 0 0-1.062-.73 3.627 3.627 0 0 0-1.379-.26c-.96 0-1.775.334-2.44.999-.665.667-.999 1.488-.999 2.46 0 .97.334 1.794.999 2.459s1.48.998 2.44.998c1.01 0 1.814-.323 2.432-.98.545-.546.824-1.285.824-2.21 0-.156-.02-.323-.047-.498Zm1.243-3.08v6.62h3.866v-.813h-3.015v-2.1h2.72v-.794h-2.72V8.495h3.015V7.68h-3.866Zm9.286.815V7.68h-4.55v.815h1.85V14.3h.85V8.495h1.85Zm4.119-.815h-.851v6.62h.85V7.68Zm5.615.815V7.68h-4.55v.815h1.85V14.3h.85V8.495h1.85Zm8.585.046c-.656-.675-1.46-1.009-2.422-1.009-.962 0-1.766.334-2.423.999-.657.656-.98 1.48-.98 2.46 0 .979.324 1.802.98 2.459.657.665 1.46.998 2.423.998.953 0 1.766-.333 2.422-.998.657-.657.98-1.48.98-2.46 0-.97-.323-1.793-.98-2.449Zm-4.235.553c.49-.498 1.092-.747 1.813-.747.72 0 1.322.249 1.803.747.49.49.73 1.13.73 1.896 0 .768-.24 1.406-.73 1.896-.48.498-1.082.75-1.803.75-.721 0-1.323-.252-1.813-.75-.48-.5-.72-1.128-.72-1.896 0-.767.24-1.395.72-1.896Zm7.236 1.083L84.578 8.9h.036l3.365 5.4h.889V7.68h-.85v3.874l.035 1.277h-.036L84.8 7.68h-1.037v6.62h.851v-4.123Z" fill="#fff" stroke="#fff" stroke-width=".22" stroke-miterlimit="10"/></g><defs><clipPath id="a"><path fill="#fff" transform="translate(.63)" d="M0 0h148.501v44H0z"/></clipPath></defs></svg>